<mxfile host="Electron" agent="Mozilla/5.0 (Windows NT 10.0; Win64; x64) AppleWebKit/537.36 (KHTML, like Gecko) draw.io/26.2.2 Chrome/134.0.6998.178 Electron/35.1.2 Safari/537.36" version="26.2.2">
  <diagram name="Страница — 1" id="itrL7sbn9p96ayGT9FoG">
    <mxGraphModel dx="1428" dy="849" grid="1" gridSize="10" guides="1" tooltips="1" connect="1" arrows="1" fold="1" page="1" pageScale="1" pageWidth="827" pageHeight="1169" math="0" shadow="0">
      <root>
        <mxCell id="0" />
        <mxCell id="1" parent="0" />
        <mxCell id="9mNg4-M_Asiz6xoXqbHi-31" style="edgeStyle=orthogonalEdgeStyle;rounded=0;orthogonalLoop=1;jettySize=auto;html=1;" parent="1" source="9mNg4-M_Asiz6xoXqbHi-1" target="9mNg4-M_Asiz6xoXqbHi-9" edge="1">
          <mxGeometry relative="1" as="geometry">
            <Array as="points">
              <mxPoint x="480" y="480" />
              <mxPoint x="480" y="535" />
            </Array>
          </mxGeometry>
        </mxCell>
        <mxCell id="9mNg4-M_Asiz6xoXqbHi-32" style="edgeStyle=orthogonalEdgeStyle;rounded=0;orthogonalLoop=1;jettySize=auto;html=1;" parent="1" source="9mNg4-M_Asiz6xoXqbHi-1" target="9mNg4-M_Asiz6xoXqbHi-10" edge="1">
          <mxGeometry relative="1" as="geometry">
            <Array as="points">
              <mxPoint x="480" y="480" />
              <mxPoint x="480" y="625" />
            </Array>
          </mxGeometry>
        </mxCell>
        <mxCell id="9mNg4-M_Asiz6xoXqbHi-33" style="edgeStyle=orthogonalEdgeStyle;rounded=0;orthogonalLoop=1;jettySize=auto;html=1;" parent="1" source="9mNg4-M_Asiz6xoXqbHi-1" target="9mNg4-M_Asiz6xoXqbHi-13" edge="1">
          <mxGeometry relative="1" as="geometry">
            <Array as="points">
              <mxPoint x="430" y="480" />
              <mxPoint x="430" y="745" />
            </Array>
          </mxGeometry>
        </mxCell>
        <mxCell id="9mNg4-M_Asiz6xoXqbHi-34" style="edgeStyle=orthogonalEdgeStyle;rounded=0;orthogonalLoop=1;jettySize=auto;html=1;" parent="1" source="9mNg4-M_Asiz6xoXqbHi-1" target="9mNg4-M_Asiz6xoXqbHi-5" edge="1">
          <mxGeometry relative="1" as="geometry">
            <Array as="points">
              <mxPoint x="430" y="480" />
              <mxPoint x="430" y="405" />
            </Array>
          </mxGeometry>
        </mxCell>
        <mxCell id="9mNg4-M_Asiz6xoXqbHi-35" style="edgeStyle=orthogonalEdgeStyle;rounded=0;orthogonalLoop=1;jettySize=auto;html=1;" parent="1" source="9mNg4-M_Asiz6xoXqbHi-1" target="9mNg4-M_Asiz6xoXqbHi-14" edge="1">
          <mxGeometry relative="1" as="geometry" />
        </mxCell>
        <mxCell id="9mNg4-M_Asiz6xoXqbHi-1" value="Админ" style="shape=umlActor;verticalLabelPosition=bottom;verticalAlign=top;html=1;" parent="1" vertex="1">
          <mxGeometry x="370" y="450" width="30" height="60" as="geometry" />
        </mxCell>
        <mxCell id="9mNg4-M_Asiz6xoXqbHi-2" value="Онлайн магазин" style="shape=umlFrame;whiteSpace=wrap;html=1;pointerEvents=0;width=110;height=30;" parent="1" vertex="1">
          <mxGeometry x="450" y="160" width="800" height="760" as="geometry" />
        </mxCell>
        <mxCell id="9mNg4-M_Asiz6xoXqbHi-36" style="edgeStyle=orthogonalEdgeStyle;rounded=0;orthogonalLoop=1;jettySize=auto;html=1;entryX=1;entryY=0.5;entryDx=0;entryDy=0;" parent="1" source="9mNg4-M_Asiz6xoXqbHi-3" target="9mNg4-M_Asiz6xoXqbHi-14" edge="1">
          <mxGeometry relative="1" as="geometry">
            <Array as="points">
              <mxPoint x="1100" y="410" />
              <mxPoint x="1100" y="495" />
            </Array>
          </mxGeometry>
        </mxCell>
        <mxCell id="9mNg4-M_Asiz6xoXqbHi-37" style="edgeStyle=orthogonalEdgeStyle;rounded=0;orthogonalLoop=1;jettySize=auto;html=1;" parent="1" source="9mNg4-M_Asiz6xoXqbHi-3" target="9mNg4-M_Asiz6xoXqbHi-15" edge="1">
          <mxGeometry relative="1" as="geometry" />
        </mxCell>
        <mxCell id="9mNg4-M_Asiz6xoXqbHi-3" value="Пользователь" style="shape=umlActor;verticalLabelPosition=bottom;verticalAlign=top;html=1;" parent="1" vertex="1">
          <mxGeometry x="1300" y="380" width="30" height="60" as="geometry" />
        </mxCell>
        <mxCell id="9mNg4-M_Asiz6xoXqbHi-4" value="Создать товар" style="ellipse;whiteSpace=wrap;html=1;" parent="1" vertex="1">
          <mxGeometry x="560" y="290" width="110" height="50" as="geometry" />
        </mxCell>
        <mxCell id="9mNg4-M_Asiz6xoXqbHi-5" value="Управление товарами" style="ellipse;whiteSpace=wrap;html=1;" parent="1" vertex="1">
          <mxGeometry x="500" y="380" width="110" height="50" as="geometry" />
        </mxCell>
        <mxCell id="9mNg4-M_Asiz6xoXqbHi-6" value="Указать название" style="ellipse;whiteSpace=wrap;html=1;" parent="1" vertex="1">
          <mxGeometry x="680" y="190" width="110" height="50" as="geometry" />
        </mxCell>
        <mxCell id="9mNg4-M_Asiz6xoXqbHi-7" value="Изменить товар" style="ellipse;whiteSpace=wrap;html=1;" parent="1" vertex="1">
          <mxGeometry x="660" y="340" width="110" height="50" as="geometry" />
        </mxCell>
        <mxCell id="9mNg4-M_Asiz6xoXqbHi-8" value="Удалить товар" style="ellipse;whiteSpace=wrap;html=1;" parent="1" vertex="1">
          <mxGeometry x="650" y="430" width="110" height="50" as="geometry" />
        </mxCell>
        <mxCell id="9mNg4-M_Asiz6xoXqbHi-9" value="Создать пользователя" style="ellipse;whiteSpace=wrap;html=1;" parent="1" vertex="1">
          <mxGeometry x="580" y="510" width="110" height="50" as="geometry" />
        </mxCell>
        <mxCell id="9mNg4-M_Asiz6xoXqbHi-10" value="Управление пользователями" style="ellipse;whiteSpace=wrap;html=1;" parent="1" vertex="1">
          <mxGeometry x="500" y="600" width="110" height="50" as="geometry" />
        </mxCell>
        <mxCell id="9mNg4-M_Asiz6xoXqbHi-11" value="Изменить пользователя" style="ellipse;whiteSpace=wrap;html=1;" parent="1" vertex="1">
          <mxGeometry x="690" y="570" width="110" height="50" as="geometry" />
        </mxCell>
        <mxCell id="9mNg4-M_Asiz6xoXqbHi-12" value="Удалить пользователя" style="ellipse;whiteSpace=wrap;html=1;" parent="1" vertex="1">
          <mxGeometry x="650" y="660" width="110" height="50" as="geometry" />
        </mxCell>
        <mxCell id="9mNg4-M_Asiz6xoXqbHi-13" value="Просмотр ролей" style="ellipse;whiteSpace=wrap;html=1;" parent="1" vertex="1">
          <mxGeometry x="480" y="720" width="110" height="50" as="geometry" />
        </mxCell>
        <mxCell id="9mNg4-M_Asiz6xoXqbHi-14" value="Посмотреть магазин" style="ellipse;whiteSpace=wrap;html=1;" parent="1" vertex="1">
          <mxGeometry x="910" y="470" width="110" height="50" as="geometry" />
        </mxCell>
        <mxCell id="9mNg4-M_Asiz6xoXqbHi-15" value="Отфильтровать товары" style="ellipse;whiteSpace=wrap;html=1;" parent="1" vertex="1">
          <mxGeometry x="1050" y="560" width="110" height="50" as="geometry" />
        </mxCell>
        <mxCell id="9mNg4-M_Asiz6xoXqbHi-16" value="Указать период товара" style="ellipse;whiteSpace=wrap;html=1;" parent="1" vertex="1">
          <mxGeometry x="920" y="630" width="110" height="50" as="geometry" />
        </mxCell>
        <mxCell id="9mNg4-M_Asiz6xoXqbHi-17" value="Указать текст в поиске" style="ellipse;whiteSpace=wrap;html=1;" parent="1" vertex="1">
          <mxGeometry x="1080" y="660" width="110" height="50" as="geometry" />
        </mxCell>
        <mxCell id="9mNg4-M_Asiz6xoXqbHi-21" value="Extends" style="endArrow=block;endSize=16;endFill=0;html=1;rounded=0;entryX=0;entryY=0;entryDx=0;entryDy=0;" parent="1" source="9mNg4-M_Asiz6xoXqbHi-10" target="9mNg4-M_Asiz6xoXqbHi-12" edge="1">
          <mxGeometry width="160" relative="1" as="geometry">
            <mxPoint x="740" y="790" as="sourcePoint" />
            <mxPoint x="900" y="790" as="targetPoint" />
          </mxGeometry>
        </mxCell>
        <mxCell id="9mNg4-M_Asiz6xoXqbHi-22" value="Extends" style="endArrow=block;endSize=16;endFill=0;html=1;rounded=0;" parent="1" source="9mNg4-M_Asiz6xoXqbHi-10" target="9mNg4-M_Asiz6xoXqbHi-11" edge="1">
          <mxGeometry width="160" relative="1" as="geometry">
            <mxPoint x="640" y="550" as="sourcePoint" />
            <mxPoint x="800" y="550" as="targetPoint" />
          </mxGeometry>
        </mxCell>
        <mxCell id="9mNg4-M_Asiz6xoXqbHi-25" value="Extends" style="endArrow=block;endSize=16;endFill=0;html=1;rounded=0;" parent="1" source="9mNg4-M_Asiz6xoXqbHi-10" target="9mNg4-M_Asiz6xoXqbHi-9" edge="1">
          <mxGeometry width="160" relative="1" as="geometry">
            <mxPoint x="617" y="627" as="sourcePoint" />
            <mxPoint x="703" y="613" as="targetPoint" />
          </mxGeometry>
        </mxCell>
        <mxCell id="9mNg4-M_Asiz6xoXqbHi-26" value="Extends" style="endArrow=block;endSize=16;endFill=0;html=1;rounded=0;" parent="1" source="9mNg4-M_Asiz6xoXqbHi-5" target="9mNg4-M_Asiz6xoXqbHi-4" edge="1">
          <mxGeometry width="160" relative="1" as="geometry">
            <mxPoint x="560" y="380" as="sourcePoint" />
            <mxPoint x="646" y="366" as="targetPoint" />
          </mxGeometry>
        </mxCell>
        <mxCell id="9mNg4-M_Asiz6xoXqbHi-27" value="Extends" style="endArrow=block;endSize=16;endFill=0;html=1;rounded=0;" parent="1" source="9mNg4-M_Asiz6xoXqbHi-5" target="9mNg4-M_Asiz6xoXqbHi-8" edge="1">
          <mxGeometry width="160" relative="1" as="geometry">
            <mxPoint x="637" y="647" as="sourcePoint" />
            <mxPoint x="723" y="633" as="targetPoint" />
          </mxGeometry>
        </mxCell>
        <mxCell id="9mNg4-M_Asiz6xoXqbHi-28" value="Extends" style="endArrow=block;endSize=16;endFill=0;html=1;rounded=0;" parent="1" source="9mNg4-M_Asiz6xoXqbHi-5" target="9mNg4-M_Asiz6xoXqbHi-7" edge="1">
          <mxGeometry width="160" relative="1" as="geometry">
            <mxPoint x="647" y="657" as="sourcePoint" />
            <mxPoint x="733" y="643" as="targetPoint" />
          </mxGeometry>
        </mxCell>
        <mxCell id="9mNg4-M_Asiz6xoXqbHi-29" value="Extends" style="endArrow=block;endSize=16;endFill=0;html=1;rounded=0;" parent="1" source="9mNg4-M_Asiz6xoXqbHi-15" target="9mNg4-M_Asiz6xoXqbHi-16" edge="1">
          <mxGeometry width="160" relative="1" as="geometry">
            <mxPoint x="657" y="667" as="sourcePoint" />
            <mxPoint x="743" y="653" as="targetPoint" />
          </mxGeometry>
        </mxCell>
        <mxCell id="9mNg4-M_Asiz6xoXqbHi-30" value="Extends" style="endArrow=block;endSize=16;endFill=0;html=1;rounded=0;" parent="1" source="9mNg4-M_Asiz6xoXqbHi-15" target="9mNg4-M_Asiz6xoXqbHi-17" edge="1">
          <mxGeometry width="160" relative="1" as="geometry">
            <mxPoint x="667" y="677" as="sourcePoint" />
            <mxPoint x="753" y="663" as="targetPoint" />
          </mxGeometry>
        </mxCell>
        <mxCell id="9mNg4-M_Asiz6xoXqbHi-38" value="Include" style="endArrow=block;endSize=16;endFill=0;html=1;rounded=0;" parent="1" source="9mNg4-M_Asiz6xoXqbHi-4" target="9mNg4-M_Asiz6xoXqbHi-6" edge="1">
          <mxGeometry width="160" relative="1" as="geometry">
            <mxPoint x="760" y="790" as="sourcePoint" />
            <mxPoint x="829" y="816" as="targetPoint" />
          </mxGeometry>
        </mxCell>
      </root>
    </mxGraphModel>
  </diagram>
</mxfile>
